<svg width="566" height="615" viewBox="0 0 566 615" fill="none" xmlns="http://www.w3.org/2000/svg">
<path d="M330.618 78.5879L330.778 78.7495C331.708 81.1651 321.618 118.875 320.173 123.99L312.984 120.464L309.022 118.504C310.455 112.429 317.319 89.2353 320.154 84.1256C324.808 82.5244 326.577 81.2239 330.618 78.5879Z" fill="#DEA025"/>
<path d="M423.076 255.139C418.643 256.345 412.556 257.9 408.393 256.014L408.025 254.866C410.187 251.674 416.132 251.128 420.014 250.314C421.123 251.843 421.661 252.368 423.064 253.544C423.064 254.076 423.07 254.607 423.076 255.139Z" fill="#DEA025"/>
<path d="M427.515 248.519C428.428 251.159 428.501 252.146 430.999 253.493L423.076 255.139C423.07 254.607 423.064 254.076 423.064 253.544C421.662 252.368 421.123 251.843 420.015 250.314C422.47 249.594 425.011 249.076 427.515 248.519Z" fill="#E0B868"/>
<path d="M142.977 262.182C149.972 261.743 157.432 261.975 164.581 261.943C217.932 261.704 294.166 268.684 301.41 335.674C303.014 350.527 300.792 364.29 293.579 377.605C280.065 402.555 257.72 410.629 232.15 418.208C254.595 422.618 270.766 428.874 288.864 442.623C269.908 452.39 250.405 465.147 232.487 476.734C212.538 436.249 171.636 427.239 129.594 430.278C128.921 440.861 129.141 453.025 129.128 463.711L129.18 517.195C129.175 532.276 128.692 545.293 131.074 560.276C117.881 572.216 102.51 587.493 89.3248 598.656C73.2923 599.011 56.6902 598.754 40.5817 598.803C29.8131 598.839 15.8477 599.231 5.30071 598.533C4.42818 597.058 4.6535 597.878 5.07782 595.907C5.80769 594.945 6.73964 594.186 8.00772 593.972C18.2828 592.282 27.9156 591.406 36.9618 585.687C50.8788 576.882 52.2602 561.501 53.0556 546.598C53.7071 534.407 53.494 522.171 53.4946 509.934L53.4873 438.837L53.5038 359.355C53.5032 342.215 53.8087 325.614 52.5523 308.704C50.2708 277.994 28.9546 273.358 3.01926 269.933C1.39297 269.718 0.772116 269.01 0 267.741L0.461658 266.311C0.865779 265.947 1.26989 265.583 1.67401 265.218C30.0905 264.155 74.4428 266.056 101.444 264.145C123.676 262.572 129.067 262.527 142.977 262.182ZM129.794 282.877C128.083 303.866 129.351 332.775 129.12 354.269C128.995 365.962 128.53 395.251 129.742 405.457C151.466 406.769 182.231 407.248 200.409 394.483C226.367 373.78 229.445 335.461 212.405 307.848C197.218 283.239 163.549 281.44 137.415 282.357L129.794 282.877Z" fill="white"/>
<path d="M270.373 47.8701C274.114 50.2067 273.892 51.9285 273.616 55.9268C285.839 55.3225 293.768 55.2882 298.912 67.838C305.923 72.5925 318.45 75.5169 326.723 77.2571C314.048 83.4242 302.696 86.8464 291.38 77.7959C286.874 74.19 278.491 76.6999 273.314 78.0843L273.32 85.8453C280.267 92.7086 282.606 96.3793 277.008 105.263C287.933 108.551 305.427 113.153 292.874 126.849C299.475 129.117 303.773 130.483 309.805 134.265C331.725 148.008 337.769 175.661 342.894 199.377C345.833 197.679 348.857 196.229 351.894 194.718C349.341 187.129 352.39 184.091 356.309 177.594C358.587 182.134 361.918 186.384 361.012 192.455C359.916 199.805 375.358 196.063 368.041 208.398C370.747 210.334 376.779 214.787 378.964 218.903C384.561 229.423 389.521 250.601 389.404 262.638C389.392 264.151 381.591 265.293 379.454 265.789C358.991 270.537 341.491 277.307 322.865 286.836C317.299 290.102 311.77 293.437 306.29 296.842C303.853 293.168 301.043 289.759 297.901 286.669C262.726 251.569 200.855 250.981 154.299 250.784C155.721 234.541 159.558 217.738 174.077 208.67C168.403 200.18 175.611 198.093 182.263 194.932C180.161 187.712 183.079 184.58 186.22 177.572C190.441 184.312 190.419 184.584 191.716 192.177C192.418 196.287 195.643 197.435 199.186 199.482C207.536 164.371 211.653 138.3 249.696 127.033C236.904 113.186 253.631 108.569 264.899 105.207C259.484 96.4247 261.304 92.8598 268.461 85.9842C268.355 74.7405 268.188 63.4649 267.77 52.2156C267.699 50.3114 269.057 49.1039 270.373 47.8701ZM256.981 163.363C251.771 165.1 244.084 167.011 240.388 170.774C238.892 174.019 246.531 220.662 248.146 226.824C250.243 234.831 260.116 225.018 264.717 243.383C280.794 244.154 273.494 244.508 281.565 233.681C283.249 231.421 289.378 230.937 291.705 229.529C296.322 225.95 297.901 202.803 298.679 196.808L302.42 170.094C296.34 167.566 290.193 165.205 283.978 163.015C283.445 178.969 282.073 194.797 280.745 210.706C280.42 214.58 280.794 218.455 277.891 221.466C274.467 225.01 266.224 225.092 263.354 220.977C260.091 216.299 261.243 206.583 260.261 200.949C259.525 196.572 258.386 164.639 256.981 163.363Z" fill="#DEA025"/>
<path d="M270.511 160.003C272.81 162.18 277.708 210.665 278.075 217.389C278.179 219.249 274.044 221.657 272.625 222.534C268.54 222.108 264.197 221.265 264.094 216.027C263.973 209.822 265.067 203.047 265.814 196.84C267.251 184.545 268.818 172.265 270.511 160.003Z" fill="#D51513"/>
<path d="M561.878 372.31C562.76 372.22 564.223 372.225 565.16 372.196C565.019 372.295 538.69 379.606 536.192 380.366C513.904 387.088 491.984 394.956 470.51 403.941C365.775 447.541 273.623 516.349 195.564 597.799C190.438 603.144 185.414 608.294 180.559 613.915C171.644 614.392 160.462 614.111 151.409 614.117L102.05 614.056C100.156 614.007 97.6929 614.251 96.292 613.407C99.3211 609.182 107.569 601.075 111.508 596.991C129.783 577.985 148.97 559.879 169.003 542.734C261.278 463.238 362.652 409.826 482.346 384.359C498.058 380.952 513.892 378.171 529.824 376.02C540.141 374.698 551.861 374.011 561.878 372.31Z" fill="#C98E18"/>
<path d="M401.08 451.671C404.044 456.382 399.66 537.15 403.946 554.527C405.238 559.75 407.559 565.163 412.445 567.906C427.489 576.362 496.465 573.294 513.928 568.518C530.313 564.042 542.97 553.792 551.524 539.164C554.248 534.505 556.165 529.41 558.92 524.775C559.998 522.957 561.29 520.874 563.402 520.364C565.313 524.107 559.624 543.946 558.394 548.992L546.27 598.093C531.587 598.478 515.453 598.166 500.659 598.184L356.584 598.172C348.753 598.172 286.824 598.858 283.965 597.297L284.075 595.49C285.636 593.335 292.58 592.857 295.25 592.41C331.247 586.373 329.575 554.135 329.802 525.252C329.875 515.592 329.851 504.845 330.347 494.889C351.716 479.925 378.29 464.243 401.08 451.671Z" fill="#C08616"/>
<path d="M460.86 267.057L526.53 266.853C531.495 266.846 552.534 266.463 556.239 267.412C556.551 268.084 556.686 268.626 556.686 269.371C556.71 276.582 547.93 332.195 544.329 335.364C543.705 335.916 542.78 335.688 541.996 335.695C539.223 332.922 539.786 319.826 533.81 312.159C525.446 301.429 514.051 297.335 501.107 295.2C494.365 294.092 487.587 293.285 480.778 292.778C469.781 292.037 412.518 289.924 405.41 295.486C399.868 299.822 401.693 350.6 401.742 361.677C401.638 372.287 401.76 383.091 401.773 393.718C378.168 399.814 349.218 414.491 326.086 423.153C325.375 394.485 326.379 365.497 325.963 336.799C325.773 323.485 326.557 312.538 322.057 299.754C363.32 275.269 413.645 268.032 460.86 267.057Z" fill="#DEA025"/>
<path d="M514.449 135.736L514.81 135.995C513.157 138.663 405.318 211.13 397.64 213.577L396.391 212.615L392.423 203.486C398.926 198.587 412.623 190.661 419.713 186.519C436.833 176.359 454.26 166.715 471.955 157.6C484.581 151.13 502.687 142.702 514.449 135.736Z" fill="#DEA025"/>
<path d="M411.545 35.1636C412.255 42.0667 357.54 147.244 350.254 158.04L345.312 155.029L340.353 151.558C349.145 133.142 361.655 115.061 372.113 97.4564C384.647 76.3521 398.999 56.2728 411.545 35.1636Z" fill="#DEA025"/>
<path d="M470.21 78.1387L470.479 78.3028L470.455 79.0198C446.079 106.784 423.019 136.064 397.26 162.916C393.959 166.354 382.344 179.429 378.799 181.447C376.466 181.119 376.907 180.874 374.782 178.888C373.851 178.038 371.598 175.412 370.637 174.356C376.08 166.205 388.185 156.278 394.927 148.829C417.974 123.356 445.938 102.093 470.21 78.1387Z" fill="#DEA025"/>
<path d="M29.4736 141.765C37.7832 142.764 143.507 198.292 149.277 204.484C149.215 207.194 147.888 209.534 146.778 212.083L145.739 213.855C138.43 215.231 44.4445 150.926 29.4736 141.765Z" fill="#DEA025"/>
<path d="M537.263 198.88L538.776 198.887C537.882 199.722 525.054 204.239 522.764 205.141C498.18 214.953 473.498 224.513 448.718 233.817C436.276 238.436 418.807 243.888 407.173 248.916C406.377 246.554 405.293 240.345 404.767 237.659C412.341 233.815 428.432 229.2 437.023 226.261C470.026 214.969 503.617 207.707 537.263 198.88Z" fill="#DEA025"/>
<path d="M136.346 54.7691L138.808 53.043C146.951 64.5849 199.382 141.79 201.278 151.468C199.915 154.4 195.156 156.531 192.192 158.195C188.404 152.844 185.465 147.144 182.185 141.495C165.715 113.142 151.179 83.9846 136.346 54.7691Z" fill="#DEA025"/>
<path d="M3.49805 201.802C8.87714 202.246 30.4346 207.88 36.6182 209.353C61.9101 215.378 87.5246 221.606 112.317 229.42C119.737 231.759 130.86 235.032 137.802 238.021C137.517 241.454 136.749 244.262 135.963 247.6L135.286 248.369C130.758 248.128 112.659 241.357 106.923 239.487C72.108 228.141 37.8587 214.042 3.49805 201.802Z" fill="#DEA025"/>
<path d="M81.9883 92.4316C103.589 110.691 124.7 129.523 145.3 148.905C150.941 154.139 167.26 168.741 170.863 174.609C168.526 177.927 166.899 179.811 164.201 182.854C136.707 157.561 110.906 128.263 85.6952 100.722C85.4221 99.197 83.0237 95.5795 81.9883 92.4316Z" fill="#DEA025"/>
<path d="M197.104 10.459C197.241 10.601 197.394 10.7296 197.516 10.8864C200.324 14.4959 233.823 116.469 232.759 120.987C232.561 121.828 231.625 122.007 230.922 122.382C228.106 123.592 224.718 125.417 221.928 126.82C212.803 90.0904 204.069 47.5077 197.104 10.459Z" fill="#DEA025"/>
<path d="M442.344 146.756L442.779 147.272C438.719 151.897 391.798 194.64 388.847 195.974L387.72 195.442C386.233 193.267 384.916 190.854 383.6 188.563C398.436 174.999 425.151 160.712 442.344 146.756Z" fill="#DEA025"/>
<path d="M402.893 108.807C402.777 109.794 368.653 163.28 365.065 168.687L360.767 165.718C359.181 164.493 358.44 164.146 357.656 162.293C360.35 157.278 371.709 144.43 376.001 139.652C384.953 129.678 393.941 118.674 402.893 108.807Z" fill="#DEA025"/>
<path d="M465.569 195.235L465.348 196.068C456.672 201.218 445.038 207.091 436.105 212.214C429.602 215.943 408.71 227.662 402.379 229.607C401.62 227.023 400.977 224.085 400.34 221.443C406.267 217.703 415.415 214.554 422.003 211.883C435.994 206.212 452.018 201.565 465.569 195.235Z" fill="#DEA025"/>
<path d="M78.0625 198.157C80.8895 198.558 91.4456 203.052 94.8696 204.22C111.051 209.742 126.779 215.592 142.719 221.729L140.531 228.542C140.337 229.19 140.526 228.787 139.579 229.478C133.313 228.499 87.7155 202.952 78.0625 198.157Z" fill="#DEA025"/>
<path d="M117.042 161.658C125.404 166.888 152.61 183.817 158.938 189.549L154.302 197.058C140.803 187.297 128.447 174.863 115.653 164.094L117.042 161.658Z" fill="#DEA025"/>
<path d="M153.03 126.644C162.108 137.32 176.843 151.617 184.586 162.837L177.698 168.71C169.923 159.726 157.998 139.766 150.827 129.066L153.03 126.644Z" fill="#DEA025"/>
<path d="M345.753 10.0181C346.5 13.2241 335.075 66.8975 333.44 73.8674L327.794 70.7238C327.164 70.3576 325.853 69.6167 325.976 69.1177C329.178 56.0119 342.52 20.9293 345.753 10.0181Z" fill="#DEA025"/>
<path d="M354.478 82.3262C354.582 84.1557 336.715 138.077 335.527 139.985C333.88 140.015 334.689 140.087 332.882 138.4L328.927 133.653C333.874 120.786 347.976 95.7687 354.478 82.3262Z" fill="#DEA025"/>
<path d="M192.312 94.3936C195.598 96.1294 211.935 128.214 213.062 132.792C212.632 135.081 211.39 136.073 209.825 137.843L206.988 141.232C203.91 131.973 200.992 122.695 198.088 113.382C196.111 107.041 193.655 100.899 192.312 94.3936Z" fill="#DEA025"/>
<path d="M427.839 251.205C446.502 247.308 460.658 246.07 479.058 243.074L479.34 243.324C474.215 245.314 465.955 247.12 460.389 248.548L431.323 256.179C428.825 254.832 428.751 253.845 427.839 251.205Z" fill="#F0C87F"/>
<path d="M270.158 23.3231C271.154 20.9223 271.522 20.3296 272.943 18.1216L273.782 18.233C274.615 26.2536 275.229 32.3332 275.324 40.4217C272.83 39.3643 271.64 38.8181 269.042 38.1746C269.308 33.3153 269.487 28.1083 270.158 23.3231Z" fill="#DEA025"/>
<path d="M96.2002 251.362C90.0166 250.53 72.3118 246.807 66.2646 244.967C69.4529 244.117 96.0312 247.852 101.154 248.64C98.5203 249.078 98.3084 249.511 96.2002 251.362Z" fill="#C08616"/>
<path d="M101.154 248.641C108.52 249.494 116.039 250 122.812 253.033C114.978 253.23 103.691 253.474 96.2002 251.362C98.3084 249.511 98.5202 249.078 101.154 248.641Z" fill="#E0B868"/>
<path d="M270.158 23.3233C270.315 17.5603 271.21 5.62402 272.214 0C272.614 1.04888 273.814 16.738 273.782 18.2332L272.944 18.1218C271.522 20.3297 271.154 20.9225 270.158 23.3233Z" fill="#C08616"/>
<path d="M150.827 129.066C148.553 125.675 140.673 114.895 139.679 112.006C142.288 114.085 150.09 123.429 153.03 126.644L150.827 129.066Z" fill="#564720" fill-opacity="0.980392"/>
<path d="M115.654 164.094C111.994 161.519 107.863 156.396 103.826 154.052C101.913 152.941 101.789 152.792 100.263 151.2L100.492 150.691C103.634 151.82 113.594 159.215 117.042 161.658L115.654 164.094Z" fill="#564720" fill-opacity="0.843137"/>
<path d="M315.065 502.242C315.978 503.4 315.782 506.744 315.764 508.347C314.986 575.812 254.563 600.077 195.468 599.618L195.044 598.945C198.745 595.314 203.019 592.338 206.876 588.903C241.49 558.067 276.97 528.726 315.065 502.242Z" fill="white"/>
</svg>
