<svg width="1254" height="1254" viewBox="0 0 1254 1254" fill="none" xmlns="http://www.w3.org/2000/svg">
<path d="M477.654 347.495C484.649 347.056 492.109 347.288 499.258 347.256C552.609 347.017 628.843 353.997 636.087 420.987C637.691 435.84 635.468 449.603 628.255 462.918C614.742 487.868 592.397 495.942 566.827 503.521C589.272 507.931 605.443 514.187 623.541 527.936C604.584 537.703 585.082 550.46 567.164 562.047C547.214 521.562 506.312 512.552 464.271 515.591C463.597 526.174 463.817 538.338 463.804 549.023L463.856 602.508C463.852 617.589 463.368 630.606 465.751 645.589C452.558 657.529 437.186 672.806 424.002 683.969C407.969 684.324 391.367 684.067 375.258 684.116C364.49 684.152 350.524 684.544 339.977 683.846C339.105 682.371 339.33 683.191 339.755 681.22C340.484 680.258 341.416 679.499 342.684 679.285C352.96 677.595 362.592 676.719 371.639 671C385.556 662.195 386.937 646.814 387.732 631.911C388.384 619.72 388.171 607.484 388.171 595.247L388.164 524.15L388.181 444.668C388.18 427.528 388.485 410.927 387.229 394.017C384.948 363.307 363.631 358.671 337.696 355.246C336.07 355.031 335.449 354.323 334.677 353.054L335.138 351.624C335.543 351.26 335.947 350.896 336.351 350.531C364.767 349.468 409.12 351.369 436.12 349.458C458.353 347.884 463.744 347.84 477.654 347.495ZM464.471 368.19C462.76 389.179 464.027 418.088 463.797 439.582C463.672 451.275 463.207 480.564 464.419 490.77C486.143 492.082 516.908 492.561 535.086 479.796C561.044 459.093 564.122 420.774 547.082 393.161C531.895 368.552 498.226 366.753 472.092 367.67L464.471 368.19Z" fill="white"/>
<path d="M605.05 133.183C608.791 135.52 608.569 137.241 608.292 141.24C620.516 140.635 628.445 140.601 633.589 153.151C640.599 157.906 653.127 160.83 661.399 162.57C648.725 168.737 637.373 172.159 626.057 163.109C621.551 159.503 613.168 162.013 607.99 163.397L607.997 171.158C614.944 178.022 617.283 181.692 611.685 190.576C622.61 193.864 640.103 198.466 627.551 212.162C634.152 214.43 638.45 215.796 644.481 219.578C666.402 233.321 672.445 260.974 677.57 284.69C680.509 282.992 683.534 281.542 686.571 280.031C684.018 272.442 687.067 269.404 690.986 262.907C693.264 267.447 696.595 271.697 695.688 277.768C694.592 285.118 710.035 281.376 702.718 293.711C705.424 295.647 711.455 300.1 713.641 304.216C719.238 314.736 724.197 335.914 724.081 347.951C724.069 349.464 716.268 350.606 714.131 351.102C693.668 355.85 676.168 362.62 657.542 372.149C651.976 375.415 646.447 378.75 640.967 382.155C638.53 378.481 635.719 375.072 632.578 371.982C597.403 336.882 535.532 336.294 488.976 336.097C490.398 319.854 494.235 303.051 508.754 293.983C503.08 285.493 510.288 283.406 516.94 280.245C514.838 273.025 517.756 269.893 520.897 262.885C525.118 269.625 525.096 269.897 526.392 277.49C527.095 281.6 530.32 282.748 533.863 284.795C542.213 249.684 546.33 223.613 584.373 212.346C571.581 198.499 588.308 193.882 599.576 190.52C594.16 181.738 595.981 178.173 603.137 171.297C603.031 160.053 602.864 148.778 602.447 137.529C602.376 135.624 603.734 134.417 605.05 133.183ZM591.658 248.676C586.448 250.413 578.76 252.324 575.065 256.087C573.569 259.332 581.208 305.975 582.822 312.137C584.92 320.144 594.793 310.331 599.394 328.696C615.47 329.467 608.171 329.821 616.242 318.994C617.926 316.734 624.055 316.25 626.382 314.842C630.998 311.263 632.578 288.116 633.356 282.121L637.097 255.407C631.017 252.879 624.869 250.518 618.654 248.328C618.122 264.282 616.75 280.11 615.421 296.019C615.097 299.893 615.47 303.768 612.568 306.779C609.143 310.323 600.901 310.405 598.031 306.29C594.768 301.612 595.92 291.896 594.937 286.262C594.201 281.885 593.063 249.952 591.658 248.676Z" fill="#DEA025"/>
<path d="M605.188 245.316C607.487 247.493 612.384 295.978 612.752 302.702C612.856 304.562 608.721 306.97 607.302 307.847C603.217 307.421 598.874 306.577 598.771 301.34C598.65 295.135 599.744 288.36 600.49 282.153C601.928 269.858 603.494 257.578 605.188 245.316Z" fill="#D51513"/>
<path d="M143.925 753.398C159.562 752.608 176.874 753.098 192.623 753.171C217.733 753.288 262.159 748.793 274.618 776.672C278.643 785.47 278.871 795.537 275.247 804.507C270.291 816.974 261.009 822.478 249.367 827.505C273.91 832.214 294.568 846.53 292.562 874.096C291.822 884.26 287.987 892.544 280.957 899.88C278.68 902.09 276.218 904.111 273.599 905.905C249.983 921.892 208.444 914.887 180.535 916.314C171.619 916.773 148.138 917.183 140.266 915.695C146.944 913.283 159.804 913.589 162.983 905.305C164.161 902.237 165.08 895.171 165.134 891.809C165.471 870.526 165.214 849.193 165.295 827.903C165.268 808.787 165.518 789.524 165.013 770.432C164.959 768.43 164.681 766.838 163.822 765.069C159.404 755.97 150.539 757.317 144.308 754.886L143.925 753.398ZM198.02 905.599C225.776 905.525 257.543 910.185 260.019 872.099C258.74 849.542 246.84 838.178 224.92 834.724C219.198 833.818 208.517 836.084 212.454 827.211C215.135 824.756 220.138 825.546 223.917 824.829C247.422 820.384 254.087 789.91 239.19 773.359C232.03 765.405 220.633 763.611 210.039 763.593C205.84 763.605 201.641 763.66 197.443 763.758C195.248 766.55 195.966 787.056 195.965 792.09L195.969 834.167C195.977 850.981 195.158 883.311 196.934 898.869C197.21 901.123 197.572 903.37 198.02 905.599Z" fill="white"/>
<path d="M896.555 457.623C897.437 457.533 898.9 457.538 899.837 457.509C899.696 457.608 873.367 464.919 870.869 465.679C848.581 472.401 826.66 480.269 805.187 489.254C700.452 532.854 608.3 601.662 530.24 683.112C525.115 688.457 520.09 693.607 515.235 699.228C506.321 699.705 495.139 699.424 486.086 699.43L436.726 699.368C434.833 699.32 432.37 699.564 430.969 698.719C433.998 694.495 442.246 686.388 446.185 682.304C464.459 663.298 483.647 645.192 503.679 628.047C595.954 548.551 697.329 495.139 817.023 469.672C832.734 466.265 848.569 463.484 864.501 461.333C874.818 460.011 886.538 459.324 896.555 457.623Z" fill="#C98E18"/>
<path d="M735.758 536.984C738.721 541.695 734.337 622.463 738.623 639.84C739.915 645.063 742.236 650.476 747.122 653.219C762.166 661.675 831.142 658.607 848.605 653.831C864.991 649.355 877.647 639.105 886.201 624.477C888.926 619.818 890.842 614.723 893.598 610.088C894.675 608.27 895.967 606.187 898.08 605.677C899.99 609.42 894.302 629.259 893.071 634.305L880.947 683.406C866.264 683.791 850.13 683.479 835.337 683.497L691.261 683.485C683.43 683.485 621.502 684.171 618.642 682.61L618.752 680.803C620.314 678.648 627.257 678.17 629.927 677.723C665.924 671.686 664.253 639.448 664.479 610.565C664.553 600.905 664.528 590.158 665.024 580.202C686.394 565.238 712.968 549.556 735.758 536.984Z" fill="#C08616"/>
<path d="M795.537 352.37L861.206 352.166C866.172 352.159 887.211 351.776 890.915 352.725C891.228 353.397 891.362 353.939 891.362 354.684C891.387 361.895 882.606 417.508 879.006 420.677C878.382 421.229 877.457 421.001 876.673 421.008C873.899 418.235 874.463 405.139 868.487 397.472C860.123 386.742 848.728 382.648 835.783 380.513C829.042 379.405 822.264 378.598 815.455 378.091C804.458 377.35 747.195 375.237 740.086 380.799C734.545 385.135 736.37 435.913 736.419 446.99C736.315 457.6 736.437 468.404 736.449 479.031C712.845 485.127 683.895 499.804 660.762 508.466C660.052 479.798 661.056 450.81 660.64 422.112C660.45 408.798 661.234 397.85 656.733 385.067C697.997 360.582 748.322 353.345 795.537 352.37Z" fill="#DEA025"/>
<path d="M795.029 749.651L797.447 750.177C800.337 752.816 807.869 771.112 810.159 776.145L846.566 856.051C853.143 870.654 859.97 887.395 867.826 901.288C874.236 912.628 883.856 912.946 895.263 915.426C888.313 916.663 818.462 916.975 811.683 915.487C816.508 913.993 828.828 913.375 830.23 908.679C833.353 898.171 821.695 878.529 818.106 867.905C812.577 868.113 806.614 868.052 801.048 868.095L757.843 868.089C754.127 877.359 736.743 907.528 750.349 912.359C754.623 913.877 759.644 913.467 764.548 916.106C757.421 916.29 706.336 917.177 704.059 915.445C706.857 912.579 720.572 912.867 725.82 903.511C733.388 890.022 739.095 875.792 745.389 861.666L775.582 793.627C781.889 779.262 788.312 763.673 795.029 749.651ZM762.656 857.257H789.922L813.153 857.263L796.008 816.931C794.465 813.306 789.481 800.846 787.644 798.25C779.17 817.855 770.837 837.523 762.656 857.257Z" fill="white"/>
<path d="M411.188 749.259C412.617 749.926 413.666 750.398 414.393 751.935C420.033 763.844 425.42 776.353 430.816 788.342L460.846 854.067C467.102 867.887 473.365 882.539 480.104 896.096C488.961 913.92 495.208 910.889 509.603 915.469L510.369 915.72C503.767 916.467 436.394 917.232 431.345 916.044L430.969 915.071C434.853 910.95 455.062 916.938 442.89 891.326C439.682 884.578 435.903 875.161 432.958 868.04L415.296 868.101L373.004 868.07C369.155 877.359 364.674 886.929 361.396 896.42C355.098 914.642 367.933 912.034 379.416 915.42L380.122 915.634C375.058 916.308 324.681 916.865 319.961 916.112L319.343 915.144C322.373 912.462 333.783 913.344 338.574 906.431C348.719 891.791 358.034 867.44 365.376 850.92L398.094 776.959C400.349 771.761 408.115 752.375 411.188 749.259ZM377.76 857.239L403.815 857.257L428.214 857.239C424.736 848.887 406.304 802.786 402.614 798.298L377.76 857.239Z" fill="white"/>
<path d="M537.313 753.355C545.406 752.651 564.001 753.122 572.737 753.122C583.488 753.122 604.081 752.534 613.835 753.808C608.22 756.08 601.882 755.835 596.497 758.627C593.639 760.103 592.075 761.909 591.099 764.964C587.56 776.041 589.221 830.456 589.256 845.531C589.29 860.447 588.432 875.914 589.589 890.756C589.831 893.848 590.275 897.124 591.831 899.861C592.996 901.912 594.861 902.751 597.045 903.327C606.879 905.905 643.189 904.515 652.723 901.986C657.615 900.694 662.165 898.465 665.783 894.871C670.584 890.101 674.08 879.355 678.93 876.44L679.468 877.194C679.26 881.149 678.127 885.056 677.191 888.932C675.054 898.006 672.837 907.056 670.547 916.093C639.95 916.926 608.151 915.848 577.432 916.265C571.229 916.351 540.699 916.724 537.317 915.91L537.177 915.199C541.813 910.43 557.625 918.083 558.143 893.377C558.572 872.95 558.351 852.071 558.357 831.62L558.348 792.206C558.339 784.521 559.225 772.716 556.831 765.417C553.677 755.798 544.016 757.666 537.744 754.892L537.313 753.355Z" fill="white"/>
<path d="M1041.73 753.343C1054.05 752.669 1069.91 753.269 1082.5 753.116C1091.46 753.006 1110.05 752.731 1118.08 753.882C1104.71 759.478 1094.01 752.945 1093.78 775.208C1093.36 814.622 1093.48 854.098 1093.82 893.512C1094.22 897.651 1095.03 904.466 1096.94 908.121C1098.88 911.844 1112.87 913.601 1114.57 915.506L1113.89 916.149C1102.15 916.749 1087.43 916.161 1075.46 916.302C1067.95 916.393 1048.65 917 1042.29 915.842L1041.89 915.095C1043.43 913.638 1049.29 913.35 1051.82 912.616C1063.41 909.254 1062.9 895.918 1062.89 885.974C1062.84 849.322 1063.21 812.596 1062.75 775.943C1062.7 772.239 1061.91 766.936 1060.7 763.385C1057.59 756.313 1048.1 757.188 1042.3 754.935L1041.73 753.343Z" fill="white"/>
<path d="M932.461 753.367C942.784 752.626 959.439 753.208 970.16 753.11C980.031 753.018 999.796 752.632 1008.71 753.906C1000 757.488 987.47 754.898 985.278 767.658C983.864 775.924 984.409 784.656 984.415 793.051L984.476 834.338C984.525 864.862 987.923 896.953 956.996 913.926C942.245 921.163 923.894 921.267 908.985 914.507C916.492 913.791 923.552 914.887 930.777 911.923C939.159 908.488 945.35 900.522 948.601 892.25C950.958 886.256 952.281 879.655 952.826 873.25C953.867 860.961 954.73 770.199 951.546 763.666C948.105 756.612 939.11 757.439 932.926 755.02L932.461 753.367Z" fill="white"/>
<path d="M650.065 590.242C650.978 591.4 650.782 594.744 650.764 596.347C649.986 663.812 589.563 688.077 530.468 687.618L530.044 686.945C533.745 683.314 538.019 680.338 541.876 676.903C576.49 646.067 611.97 616.726 650.065 590.242Z" fill="white"/>
<path d="M925.37 957.614C938.871 957.308 960.51 954.357 957.308 975.591C956.61 980.245 951.044 983.441 947.327 985.511C952.109 992.081 956.794 998.724 961.374 1005.43L952.599 1005.5C948.858 1001.79 939.576 984.861 935.687 985.725C932.785 989.215 933.685 1000.58 933.753 1005.5L925.67 1005.46C925.689 994.101 926.429 967.833 925.37 957.614ZM933.771 980.612C939.612 980.502 942.98 981.224 947.48 977.765C954.736 965.458 943.176 963.296 933.704 963.743L933.771 980.612Z" fill="#C08616"/>
<path d="M610.567 957.645C623.05 957.406 647.328 954.246 642.209 975.738C640.997 980.839 636.895 983.257 632.535 985.394C637.513 991.983 641.946 998.871 647.132 1005.4C643.428 1005.5 641.095 1005.52 637.372 1005.25C633.766 1000.33 627.943 989.931 622.934 986.729C621.991 986.129 620.228 986.503 619.138 986.827C618.213 990.323 618.881 1001.17 619.021 1005.44L611.007 1005.42C611.119 993.477 611.53 968.354 610.567 957.645ZM632.29 978.096C640.82 965.605 628.347 963.449 618.905 963.517L619.003 980.655C624.404 980.514 627.624 980.918 632.29 978.096Z" fill="#C08616"/>
<path d="M434.271 957.638C446.671 957.375 470.995 954.614 465.719 975.787C464.412 981.041 460.673 983.171 456.104 985.259C460.593 991.174 466.236 1000.38 470.904 1005.44L461.278 1005.46C457.87 1001.66 448.419 983.521 443.092 986.417C441.746 988.921 442.47 1001.78 442.556 1005.45L434.657 1005.45C434.65 992.791 435.302 969.327 434.271 957.638ZM442.669 980.557C448.386 980.496 451.141 981.028 456.016 978.144C463.676 965.604 452.475 963.29 442.586 963.657C442.595 969.168 442.494 975.077 442.669 980.557Z" fill="#C08616"/>
<path d="M849.126 221.049L849.487 221.308C847.834 223.976 739.995 296.443 732.316 298.89L731.067 297.928L727.1 288.799C733.602 283.9 747.3 275.974 754.39 271.832C771.51 261.672 788.936 252.028 806.632 242.913C819.258 236.443 837.363 228.015 849.126 221.049Z" fill="#DEA025"/>
<path d="M746.222 120.477C746.932 127.38 692.217 232.556 684.93 243.353L679.989 240.342L675.029 236.871C683.822 218.455 696.331 200.374 706.79 182.769C719.323 161.665 733.676 141.586 746.222 120.477Z" fill="#DEA025"/>
<path d="M804.887 163.452L805.156 163.616L805.132 164.333C780.756 192.096 757.697 221.377 731.937 248.229C728.637 251.667 717.021 264.742 713.476 266.76C711.143 266.432 711.584 266.187 709.459 264.201C708.529 263.351 706.275 260.725 705.314 259.669C710.757 251.518 722.863 241.591 729.604 234.142C752.651 208.669 780.615 187.406 804.887 163.452Z" fill="#DEA025"/>
<path d="M364.15 227.078C372.46 228.077 478.184 283.605 483.954 289.796C483.892 292.507 482.565 294.847 481.454 297.396L480.415 299.168C473.107 300.544 379.121 236.239 364.15 227.078Z" fill="#DEA025"/>
<path d="M871.94 284.193L873.453 284.2C872.559 285.035 859.731 289.552 857.441 290.454C832.857 300.266 808.175 309.826 783.395 319.13C770.953 323.749 753.484 329.201 741.85 334.229C741.054 331.867 739.97 325.658 739.444 322.972C747.018 319.128 763.109 314.513 771.7 311.574C804.703 300.282 838.294 293.02 871.94 284.193Z" fill="#DEA025"/>
<path d="M471.022 140.082L473.484 138.356C481.628 149.898 534.058 227.103 535.954 236.781C534.591 239.713 529.832 241.844 526.868 243.508C523.08 238.157 520.142 232.457 516.861 226.808C500.391 198.455 485.855 169.298 471.022 140.082Z" fill="#DEA025"/>
<path d="M338.175 287.115C343.554 287.559 365.112 293.193 371.295 294.666C396.587 300.691 422.202 306.919 446.994 314.733C454.414 317.072 465.538 320.345 472.479 323.334C472.194 326.767 471.426 329.575 470.641 332.913L469.963 333.682C465.435 333.441 447.336 326.67 441.6 324.8C406.785 313.454 372.536 299.355 338.175 287.115Z" fill="#DEA025"/>
<path d="M416.666 177.745C438.266 196.004 459.377 214.836 479.977 234.217C485.618 239.452 501.938 254.054 505.54 259.922C503.203 263.24 501.576 265.124 498.878 268.167C471.384 242.874 445.583 213.576 420.372 186.035C420.099 184.51 417.701 180.892 416.666 177.745Z" fill="#DEA025"/>
<path d="M730.1 956.573C735.323 957.412 741.207 965.635 744.948 969.744C751.408 976.687 757.819 983.68 764.187 990.703C763.642 979.333 763.887 968.862 764.083 957.504C766.624 957.461 769.165 957.461 771.706 957.504C771.296 964.258 772.282 1003.52 770.561 1006.37C764.805 1004.34 743.148 979.173 737.288 973.081C737.974 981.616 737.539 996.44 737.582 1005.49L729.886 1005.54C729.824 990.219 729.353 971.648 730.1 956.573Z" fill="#C08616"/>
<path d="M302.971 956.573C308.931 957.559 331.008 984.262 336.523 990.207C336.047 979.492 337.093 967.907 336.26 957.565L344.13 957.443C343.863 964.907 344.536 1001.78 343.316 1005.6L341.96 1006.24C336.749 1002.59 315.262 978.537 309.833 972.512C310.604 983.196 309.657 994.328 310.427 1005.54L302.718 1005.42C303.402 989.815 302.304 972.897 302.971 956.573Z" fill="#C08616"/>
<path d="M552.288 957.571C562.865 957.541 583.36 954.785 584.434 970.313C584.722 974.495 583.281 978.61 580.446 981.702C575.499 987.023 570.344 987.139 563.781 987.243L561.5 987.348C559.584 989.968 560.554 1001.68 560.647 1005.47L552.422 1005.48C552.977 993.256 552.741 969.652 552.288 957.571ZM560.777 980.961C566.573 981.059 569.201 981.641 574.027 978.414C581.118 965.911 570.295 963.48 560.514 963.517L560.777 980.961Z" fill="#C08616"/>
<path d="M531.78 95.772C531.917 95.914 532.071 96.0426 532.192 96.1994C535 99.8089 568.5 201.782 567.436 206.3C567.238 207.141 566.302 207.32 565.598 207.695C562.783 208.905 559.395 210.73 556.605 212.133C547.48 175.403 538.746 132.821 531.78 95.772Z" fill="#DEA025"/>
<path d="M865.18 957.516C866.148 964.643 863.447 992.717 868.768 996.226C893.487 1012.51 888.123 971.189 888.05 957.62L896.181 957.473C896.083 961.998 896.12 966.645 896.102 971.183C896.242 980.018 897.737 992.92 891.773 1000C885.025 1007.93 869.987 1008.45 862.59 1001.22C855.53 994.322 857.386 981.598 857.19 972.554C857.079 967.662 857.251 962.519 857.288 957.596L865.18 957.516Z" fill="#C08616"/>
<path d="M272.085 957.363L273.118 957.252L273.744 958.195C274.092 960.902 274.091 960.988 273.245 963.541C271.503 963.957 257.518 963.724 254.385 963.737C254.196 968.458 254.299 972.75 254.409 977.483C260.382 977.648 266.357 977.654 272.33 977.514C272.123 979.644 272.032 981.904 271.907 984.047C266.071 983.967 260.117 984.022 254.269 984.016C254.165 989.037 254.302 994.156 254.381 999.177L267.363 999.33C269.626 999.281 272.311 998.987 274.603 998.803C274.495 1000.71 274.597 1003.74 273.595 1005.14C268.214 1005.91 252.258 1005.52 246.087 1005.51C246.169 989.539 246.164 973.57 246.07 957.601C254.242 957.222 263.852 957.375 272.085 957.363Z" fill="#C08616"/>
<path d="M826.03 957.344C828.246 957.4 827.34 957.044 828.981 958.067C829.232 959.99 829.403 960.596 829.054 962.549C826.544 964.325 813.471 963.627 809.669 963.682C809.687 968.286 809.779 972.897 809.938 977.495C816.374 977.679 820.819 977.795 827.291 977.281L827.328 984.072C821.56 983.876 815.424 983.992 809.626 984.004L809.987 999.214L821.37 999.391C824.284 999.361 827.395 999.006 830.316 998.748L829.838 1005.39L801.531 1005.45C801.844 993.201 801.476 980.783 801.623 968.513C801.672 964.931 801.635 961.135 801.133 957.596C809.436 957.644 817.733 957.559 826.03 957.344Z" fill="#C08616"/>
<path d="M495.658 957.504C503.143 957.534 516.131 957.045 523 957.822C523.724 959.347 523.524 961.961 523.529 963.774C517.016 963.48 510.431 963.621 503.907 963.682L503.962 977.434C510.429 977.71 514.983 977.747 521.474 977.544L521.562 984.016C517.68 983.925 506.71 982.939 504.084 984.966L503.983 987.494L503.982 999.238C509.501 999.392 516.134 999.857 521.494 999.006C523.605 998.675 522.579 998.393 524.498 998.981L524.071 1005.45L495.817 1005.48C495.987 991.609 496.583 970.95 495.658 957.504Z" fill="#C08616"/>
<path d="M696.037 957.338C700.378 957.038 702.044 960.339 699.987 963.394C697.88 963.823 684.422 963.676 680.834 963.749L681.03 977.557C687.104 977.685 692.363 977.814 698.456 977.428L698.407 984.053C692.657 983.906 686.73 983.986 680.968 983.998C681.122 988.97 681.091 994.211 681.146 999.208L692.957 999.459C695.694 999.324 698.756 999.012 701.517 998.798L701.089 1005.45L672.715 1005.55C673.149 999.238 673.437 962.531 672.28 957.577L696.037 957.338Z" fill="#C08616"/>
<path d="M997.487 956.567C1001.71 956.444 1008.59 956.561 1010.54 960.486C1011.45 962.31 1010.08 965.207 1009.45 967.007C1005.68 964.202 993.501 958.177 991.94 969.046C992.938 974.238 1004.4 978.683 1007.28 981.2C1020.11 992.43 1012.96 1004.57 997.818 1006.26C991.125 1005.83 989.043 1004.95 983.331 1001.87C983.955 999.238 984.684 996.526 985.351 993.899C989.797 997.873 1000.48 1004.48 1004.82 996.257C1010.64 985.253 985.48 983.129 984.341 972.768C983.312 963.382 988.535 958.153 997.487 956.567Z" fill="#C08616"/>
<path d="M403.352 957.314L406.361 957.271C408.428 958.587 409.848 961.043 408.129 963.235C405.649 963.921 396.541 963.621 393.377 963.657C393.263 977.214 393.121 991.97 393.503 1005.47C391.063 1005.56 388.004 1006.02 385.94 1004.96C384.685 1003.21 385.116 1000.22 385.158 997.904L385.219 963.67L370.093 963.706C370.237 961.447 370.18 959.947 371.006 957.822C377.228 956.959 395.47 957.485 403.352 957.314Z" fill="#C08616"/>
<path d="M526.377 1052.75C533.438 1051.07 540.528 1055.44 542.203 1062.5C543.878 1069.56 539.503 1076.65 532.436 1078.31C525.383 1079.97 518.317 1075.61 516.645 1068.56C514.974 1061.51 519.328 1054.44 526.377 1052.75ZM531.125 1074.31C534.286 1073.7 536.88 1071.45 537.914 1068.4C538.948 1065.35 538.263 1061.98 536.121 1059.58C533.98 1057.18 530.711 1056.12 527.566 1056.79C522.784 1057.82 519.722 1062.51 520.696 1067.31C521.67 1072.1 526.319 1075.22 531.125 1074.31Z" fill="white"/>
<path d="M201.934 1052.69C208.911 1051.21 215.792 1055.58 217.425 1062.52C219.056 1069.46 214.841 1076.44 207.935 1078.22C203.332 1079.41 198.446 1078.01 195.165 1074.57C191.884 1071.14 190.721 1066.19 192.126 1061.64C193.531 1057.1 197.283 1053.68 201.934 1052.69ZM207.173 1074.18C211.815 1072.86 214.577 1068.1 213.428 1063.41C212.278 1058.72 207.628 1055.78 202.899 1056.75C199.675 1057.41 197.071 1059.78 196.111 1062.93C195.151 1066.08 195.99 1069.49 198.297 1071.85C200.603 1074.19 204.009 1075.09 207.173 1074.18Z" fill="white"/>
<path d="M818.235 1053.11C825.068 1053 830.212 1052.36 836.157 1056.5C842.856 1061.17 841.019 1069 836.555 1074.66C830.689 1078.8 825.613 1077.99 818.48 1078.07C818.064 1070.37 818.26 1060.94 818.235 1053.11ZM822.833 1074.29C827.585 1074.23 829.808 1074.74 833.622 1071.93C839.029 1060.76 833.53 1057.01 822.797 1056.5C822.76 1062.38 822.65 1068.43 822.833 1074.29Z" fill="white"/>
<path d="M665.618 166.588L665.777 166.75C666.708 169.165 656.617 206.875 655.172 211.99L647.984 208.464L644.022 206.504C645.455 200.429 652.319 177.235 655.154 172.126C659.807 170.524 661.577 169.224 665.618 166.588Z" fill="#DEA025"/>
<path d="M704.561 1053.08C709.349 1053.07 719.005 1052.26 721.57 1056.88C722.189 1061.54 716.954 1062.81 722.415 1068.75C723.554 1069.98 722.568 1073.11 722.103 1074.91C717.878 1079.03 710.512 1078.08 704.652 1078.02L704.561 1053.08ZM708.749 1074.4C712.049 1074.33 714.492 1074.4 717.756 1073.68C718.472 1071.66 718.864 1071.13 718.301 1069.05C716.317 1066.92 715.46 1067 712.423 1066.88C711.259 1066.84 710.096 1066.81 708.932 1066.79C708.883 1069.11 708.908 1072.15 708.749 1074.4ZM716.666 1062.8C717.082 1059.65 717.449 1060.34 716.36 1057.81C714.437 1056.37 712.784 1056.62 710.341 1056.46L709.496 1056.4L708.987 1056.36C708.871 1058.71 708.436 1061.04 709.618 1062.97C712.006 1064.17 713.978 1063.48 716.666 1062.8Z" fill="white"/>
<path d="M446.154 1113.85C493.074 1112.42 541.276 1112.99 588.304 1112.9C595.203 1112.89 605.118 1112.94 611.834 1113.87C602.403 1115.68 589.955 1115.72 580.151 1115.86C534.5 1116.5 488.248 1114.58 442.604 1115.03L446.154 1113.85Z" fill="#C08616"/>
<path d="M777.021 232.069L777.456 232.585C773.396 237.21 726.475 279.953 723.524 281.287L722.397 280.755C720.909 278.58 719.593 276.167 718.276 273.876C733.113 260.312 759.827 246.024 777.021 232.069Z" fill="#DEA025"/>
<path d="M737.57 194.12C737.454 195.107 703.33 248.593 699.742 254L695.444 251.031C693.858 249.806 693.117 249.459 692.333 247.606C695.027 242.591 706.385 229.743 710.678 224.965C719.63 214.991 728.618 203.987 737.57 194.12Z" fill="#DEA025"/>
<path d="M1057.57 981.182C1077.3 981.041 1117.46 980.759 1135.67 984.268C1130.69 984.402 1126.86 984.678 1121.9 985.192C1113.02 986.08 1049.88 988.658 1045.03 983.796C1047.4 981.322 1054.22 981.341 1057.57 981.182Z" fill="#C08616"/>
<path d="M800.245 280.548L800.025 281.381C791.349 286.531 779.715 292.404 770.781 297.527C764.279 301.256 743.387 312.975 737.056 314.92C736.296 312.336 735.653 309.398 735.017 306.756C740.944 303.016 750.092 299.867 756.68 297.196C770.671 291.525 786.695 286.878 800.245 280.548Z" fill="#DEA025"/>
<path d="M253.641 1071.38C255.234 1066.69 256.684 1052.5 262.69 1053.11C263.117 1055.16 262.255 1056.9 261.597 1059.07C260.422 1062.88 257.123 1077.61 253.066 1077.62C249.997 1075.05 247.16 1064.46 245.604 1060.07C244.359 1064.28 241.493 1077.31 237.033 1078C234.05 1075.92 229.623 1057.74 228.214 1052.98C230.031 1052.99 230.204 1052.96 231.957 1053.36C234.678 1056.45 236.822 1067.15 238.226 1071.88C239.313 1068.06 242.167 1053.66 246.405 1053.86C249.447 1056.51 252.249 1067.09 253.641 1071.38Z" fill="white"/>
<path d="M147.975 981.8C155.639 981.487 211.012 979.687 213.525 983.796L212.664 984.861C208.53 986.692 198.758 986.331 193.79 986.435C169.706 986.472 147.823 986.233 123.673 984.145C132.007 982.424 139.536 982.167 147.975 981.8Z" fill="#C08616"/>
<path d="M579.239 1072.45C579.943 1067.9 582.061 1054.21 586.381 1052.23L587.468 1053.35C588.228 1055.5 587.481 1056.7 586.711 1058.9C585.461 1062.94 582.195 1078.28 577.901 1077.37C574.683 1073.82 572.658 1064.78 571.238 1059.86C569.526 1064.43 566.908 1076.16 562.508 1078.15C559.944 1076.76 554.642 1057.5 553.151 1053.07C555.38 1053.01 555.783 1052.93 558.004 1053.55C559.352 1056.48 562.226 1068.08 563.314 1072.06C564.366 1068.43 567.411 1053.28 571.826 1053.88C574.892 1056.87 577.785 1067.89 579.239 1072.45Z" fill="white"/>
<path d="M781.295 1115.23C766.906 1115.32 653.593 1117.35 650.592 1114.01C658.779 1113.04 669.696 1113.22 678.14 1112.97C712.282 1111.96 746.485 1113.19 780.719 1113.29L781.295 1115.23Z" fill="#C08616"/>
<path d="M305.67 1053.11C307.218 1053.07 308.766 1053.05 310.313 1053.04C321.734 1052.96 330.499 1060.28 318.204 1068.15C319.985 1070.57 323.691 1074.8 323.937 1077.42C322.661 1078.57 322.476 1078.13 320.158 1078.09C318.299 1075.36 314.495 1068.95 311.707 1067.95C310.869 1069.46 309.988 1075.53 309.616 1077.61C308.444 1078.48 308.879 1078.07 306.665 1077.83C306.341 1077.48 306.017 1077.14 305.693 1076.78C305.774 1069.6 305.812 1060.07 305.67 1053.11ZM318.34 1063.6C318.912 1061.37 319.312 1060.7 318.507 1058.55C316.967 1056.89 315.879 1056.81 313.641 1056.7C312.561 1056.67 311.479 1056.64 310.397 1056.64C310.322 1059.18 309.922 1061.89 311.042 1064.07C313.615 1065.57 315.577 1064.47 318.34 1063.6Z" fill="white"/>
<path d="M412.739 283.47C415.566 283.871 426.122 288.365 429.546 289.533C445.728 295.055 461.455 300.905 477.396 307.042L475.208 313.855C475.014 314.503 475.202 314.1 474.256 314.791C467.99 313.812 422.392 288.265 412.739 283.47Z" fill="#DEA025"/>
<path d="M485.418 1053.11C490.005 1053.08 498.065 1052.2 501.416 1055.75C506.203 1060.84 502.368 1063.92 498.607 1067.38C497.492 1071.28 502.739 1072.97 503.93 1077.12L503.371 1077.99L500.292 1078.33C497.57 1075.4 494.222 1067.11 490.182 1068.74C489.137 1070.85 489.999 1073.98 489.48 1077.36C487.931 1078.89 488.791 1078.64 487.013 1078.69C484.085 1075.89 485.377 1057.9 485.418 1053.11ZM497.99 1063.81C498.452 1061.45 498.825 1060.69 497.935 1058.45C495.619 1056.31 493.003 1056.69 489.799 1056.64C489.691 1059.18 489.251 1061.89 490.364 1064.08C492.561 1065.37 493.654 1064.95 496.361 1064.25C496.906 1064.11 497.449 1063.96 497.99 1063.81Z" fill="white"/>
<path d="M989.552 1053.12C993.703 1053.1 1001.61 1052.32 1004.74 1055.05C1011.4 1060.85 1005.89 1063.93 1002.39 1067.9C1002.49 1071.36 1007.48 1073.93 1008.13 1077.22C1006.87 1078.5 1006.83 1078.04 1004.35 1078.05C1002.57 1076.83 999.667 1071.38 997.64 1068.91C995.479 1068.17 996.489 1068.13 994.518 1068.75C992.423 1072.19 996.434 1075.52 991.456 1078.5L990.427 1078.15C988.909 1074.84 989.533 1058.06 989.552 1053.12ZM1002.17 1063.52C1002.73 1061.42 1002.98 1061.01 1002.45 1058.88C1000.09 1056.11 997.432 1056.67 993.991 1056.61C993.893 1059.35 993.458 1061.82 994.677 1064.16C997.126 1065.88 999.655 1064.89 1002.17 1063.52Z" fill="white"/>
<path d="M451.719 246.971C460.08 252.201 487.286 269.13 493.615 274.862L488.979 282.371C475.48 272.61 463.124 260.176 450.33 249.407L451.719 246.971Z" fill="#DEA025"/>
<path d="M487.707 211.957C496.785 222.633 511.52 236.93 519.263 248.15L512.375 254.023C504.6 245.039 492.675 225.079 485.504 214.379L487.707 211.957Z" fill="#DEA025"/>
<path d="M680.43 95.3311C681.177 98.5371 669.751 152.21 668.116 159.18L662.471 156.037C661.84 155.671 660.53 154.93 660.652 154.431C663.854 141.325 677.197 106.242 680.43 95.3311Z" fill="#DEA025"/>
<path d="M357.967 1052.81C363.957 1053.35 371.415 1065.39 375.347 1070.38C375.298 1067.17 374.916 1056.64 375.5 1054.1C377.265 1052.78 376.273 1053.16 378.658 1053.13C380.529 1055.38 379.612 1074.29 379.559 1078.68C373.538 1077.66 366.193 1065.61 362.262 1060.69C362.283 1063.49 362.294 1075.86 361.507 1077.95C359.781 1078.23 360.584 1078.34 359.008 1077.65C357.105 1073.6 357.896 1058.3 357.967 1052.81Z" fill="white"/>
<path d="M872.981 1052.74C878.866 1053.44 886.434 1065.71 890.181 1070.71C890.083 1066.56 889.128 1056.04 891.491 1053.27C893.353 1053.06 892.551 1052.82 894.063 1053.54C894.712 1060.71 894.186 1071.1 893.996 1078.54C888.693 1077.25 881.254 1065.8 877.286 1060.95C877.114 1064.49 877.77 1076.21 875.835 1078.1C873.686 1078.2 874.61 1078.48 872.914 1077.4L872.981 1052.74Z" fill="white"/>
<path d="M162.161 1053.12C168.494 1052.96 178.536 1052.45 180.291 1060.14C181.835 1066.91 172.482 1068.63 168.237 1068.77L167.124 1068.7C165.901 1070.43 166.27 1074.29 166.255 1076.69C165.192 1078.57 165.94 1078.05 164.168 1078.6L162.997 1077.7C161.54 1074.89 162.135 1057.55 162.161 1053.12ZM166.531 1065.22C169.262 1064.99 171.92 1064.91 174.55 1064.18C175.218 1061.71 175.486 1061.34 174.905 1058.96C172.873 1056.7 171.962 1056.86 168.872 1056.7C168.091 1056.67 167.309 1056.63 166.527 1056.61L166.531 1065.22Z" fill="white"/>
<path d="M689.155 167.639C689.259 169.469 671.392 223.39 670.204 225.298C668.557 225.328 669.365 225.4 667.559 223.713L663.604 218.966C668.551 206.099 682.652 181.082 689.155 167.639Z" fill="#DEA025"/>
<path d="M404.647 1052.66C407.98 1052.58 415.767 1052.98 415.27 1057.71C412.214 1059.04 408.266 1057.05 404.789 1056.76C398.559 1056.24 397.133 1063.59 398.243 1068.42C399.822 1075.28 408.766 1077.8 412.55 1070.67C412.366 1065.81 409.943 1070.42 406.138 1066.33L407.233 1065.23C409.818 1064.39 413.613 1064.67 416.447 1064.69L416.484 1074.89C411.532 1078.16 405.48 1079.82 399.937 1076.86C396.983 1075.27 394.783 1072.57 393.821 1069.35C391.186 1060.68 396.302 1054.49 404.647 1052.66Z" fill="white"/>
<path d="M457.383 1052.73C461.303 1052.49 468.49 1052.4 469.097 1057.47L468.053 1058.39C465.027 1058.63 464.585 1057.49 461.969 1056.65C454.014 1054.12 448.435 1065.37 453.334 1071.2C454.992 1073.17 456.509 1074.42 459.163 1074.66C462.013 1074.91 463.761 1074.06 465.791 1072.27C466.602 1070.06 466.627 1071.12 465.75 1068.98C463.431 1067.65 463.18 1068.17 460.023 1068.19C460.267 1066.82 460.36 1066.7 460.918 1065.4C463.65 1064.11 467.285 1064.66 470.452 1064.78L470.356 1075.02C465.552 1077.56 461.41 1079.45 455.747 1077.62C452.367 1076.54 449.616 1074.05 448.194 1070.8C446.686 1067.42 446.684 1063.55 448.189 1060.17C450.175 1055.8 453.113 1054.21 457.383 1052.73Z" fill="white"/>
<path d="M918.151 1052.67C921.66 1052.42 928.303 1052.91 929.375 1056.81C926.919 1060.63 919.412 1054.98 916.063 1057.21C903.407 1065.64 922.345 1084.65 926.864 1069.94C926.687 1068.58 926.993 1069.19 925.75 1068.23C922.866 1068.29 921.862 1068.83 920.698 1066.13C922.786 1064.18 927.293 1064.61 930.679 1064.37V1075.02C921.329 1080.39 914.9 1079.76 908.293 1071.23C906.677 1061.63 908.152 1055.55 918.151 1052.67Z" fill="white"/>
<path d="M631.244 1053.06C632.958 1053 633.693 1052.74 635.07 1053.67C636.234 1056.26 635.738 1060.29 635.726 1063.44C639.063 1063.14 644.616 1063.41 648.125 1063.5C648.033 1060.68 647.47 1055.59 648.859 1053.46C650.635 1053.2 650.556 1053.11 652.227 1053.7C652.858 1058.09 652.258 1072.34 652.135 1077.5C650.862 1078.37 650.929 1078.27 649.374 1078.38L648.492 1077.51C647.696 1074.32 648.051 1070.52 648.143 1067.16L635.658 1067.17C635.719 1070.04 636.258 1076.15 634.74 1078.18L632.37 1078.09C630.313 1075.94 631.213 1057.53 631.244 1053.06Z" fill="white"/>
<path d="M629.603 1103.08C632.438 1104.59 638.812 1111.62 641.383 1114.29C637.599 1117.88 633.938 1121.6 630.405 1125.43C627.288 1123.08 621.6 1117.24 618.581 1114.32C621.673 1110.68 626.143 1106.5 629.603 1103.08Z" fill="#C08616"/>
<path d="M526.988 179.707C530.274 181.442 546.612 213.527 547.738 218.105C547.308 220.394 546.067 221.386 544.502 223.156L541.664 226.545C538.586 217.286 535.668 208.008 532.764 198.695C530.787 192.354 528.331 186.212 526.988 179.707Z" fill="#DEA025"/>
<path d="M1020.77 1053.07C1021.35 1053.05 1023.46 1052.87 1023.99 1053.41C1027.6 1057.11 1022.05 1072.86 1028.55 1074.35C1041.98 1077.44 1035 1058.67 1037.59 1053.32C1039.94 1052.78 1038.76 1052.77 1041.24 1053.64L1041.5 1055.46C1041.54 1059.68 1042.54 1071.81 1038.87 1075.59C1034.5 1080.1 1023.52 1079.21 1021.59 1072.68C1020.33 1068.4 1020.76 1058.39 1020.77 1053.07Z" fill="white"/>
<path d="M736.027 1053.07C737.778 1053.04 737.796 1053 739.48 1053.42C741.789 1056.97 740.001 1065.1 740.546 1069.68C741.097 1074.31 746.179 1075.75 749.461 1074.07C755.492 1070.96 750.569 1058.67 753.073 1053.16C755.259 1052.72 754.151 1052.69 756.466 1053.64L756.723 1055.46C756.851 1062.81 759.331 1086.45 739.174 1076.05C734.882 1073.83 736.002 1058.46 736.027 1053.07Z" fill="white"/>
<path d="M276.155 1053.12C279.8 1053.06 288.199 1052.61 291.327 1053.45C291.71 1055.12 291.67 1054.28 291.125 1055.97C288.915 1057.47 283.48 1056.89 280.558 1056.81L280.509 1063.46L289.421 1063.57C290.841 1064.98 290.401 1064.12 290.466 1066.4C288.959 1067.72 284.458 1066.71 280.849 1067.35L280.505 1068.39C280.457 1070.85 280.368 1071.64 280.862 1074.01C284.911 1075.51 290.738 1071.93 292.136 1075.92L291.384 1077.44C289.499 1078.7 279.197 1078.12 276.211 1078.09L276.155 1053.12Z" fill="white"/>
<path d="M1060.46 1052.63C1063.41 1052.5 1067.64 1052.89 1069.62 1055.34L1069.22 1056.98C1065.36 1059.01 1063.24 1054.05 1058.96 1057.97C1059.24 1063.75 1072.49 1065.31 1071.14 1073.41C1069.27 1076.47 1066.34 1077.67 1063.02 1078.56C1059.73 1078.33 1056.92 1077.91 1054.35 1075.79C1054 1073.88 1053.85 1074.78 1055.01 1073.02C1058.31 1072.41 1058.91 1074.69 1063.57 1074.64C1065.34 1073.95 1065.45 1074.11 1066.43 1072.55C1065.47 1066.71 1043.02 1060.79 1060.46 1052.63Z" fill="white"/>
<path d="M762.515 336.518C781.178 332.621 795.335 331.383 813.734 328.387L814.016 328.637C808.891 330.627 800.631 332.433 795.065 333.861L765.999 341.492C763.501 340.145 763.427 339.158 762.515 336.518Z" fill="#F0C87F"/>
<path d="M1080.38 1053.17C1085.17 1053.07 1094.88 1052.56 1099.21 1053.3C1099.94 1054.87 1099.71 1054.22 1099.52 1056.18C1097.57 1057.16 1094.83 1056.77 1092.55 1056.69L1092.48 1070.61C1092.57 1073.36 1092.93 1075.52 1091.82 1077.97C1090.35 1078.42 1091.13 1078.39 1089.4 1077.47C1086.96 1073.29 1088.08 1062.44 1088.19 1056.77C1086.38 1056.76 1084.58 1056.78 1082.77 1056.81C1080.64 1055.56 1081.34 1056.15 1080.38 1053.17Z" fill="white"/>
<path d="M958.551 1053.13C962.065 1053.13 975.64 1052.26 977.612 1053.89L977.312 1056.16C975.426 1057.3 972.511 1056.86 970.172 1056.79L970.074 1072.26C970.111 1074.61 970.564 1076.71 968.764 1078.27L967.27 1077.85C964.557 1074.57 965.898 1061.74 966.107 1056.76C963.014 1056.86 960.847 1057.46 958.685 1055.82L958.551 1053.13Z" fill="white"/>
<path d="M598.89 1053.23C603.761 1053.1 613.272 1052.58 617.742 1053.27C618.777 1054.47 618.311 1053.91 618.317 1056.22C616.579 1057.12 613.211 1056.74 611.097 1056.68L611.049 1070.61C611.116 1073.22 611.566 1076.16 610.165 1078.1L607.87 1078.08C605.89 1075.9 606.833 1060.6 606.91 1056.75C604.703 1056.82 603.083 1056.89 600.889 1056.73C599.01 1055.56 599.619 1056.07 598.89 1053.23Z" fill="white"/>
<path d="M790.804 1052.87C792.114 1053.01 793.112 1053.16 794.41 1053.36C795.739 1055.44 795.059 1070.9 794.992 1074.33C797.955 1074.22 802.315 1073.87 805.07 1074.75C806.044 1075.06 805.903 1075.53 806.491 1076.85C804.115 1078.85 794.563 1078.1 790.847 1078.08C790.938 1069.68 790.92 1061.28 790.804 1052.87Z" fill="white"/>
<path d="M771.485 1053.05C773.188 1053 774.155 1052.79 775.612 1053.65C776.243 1059.4 775.827 1071.97 775.771 1078.25C774.192 1078.2 773.126 1078.31 771.706 1077.62C771.075 1072.24 771.455 1059.01 771.485 1053.05Z" fill="white"/>
<path d="M338.4 1053.05C339.864 1053.05 340.83 1053.16 342.278 1053.31C343.318 1055.42 342.788 1074.56 342.758 1078.13L339.124 1077.94C337.996 1076.48 338.396 1056.48 338.4 1053.05Z" fill="white"/>
<path d="M853.596 1053.1C855.494 1053.05 855.8 1052.91 857.612 1053.55C858.274 1058.39 857.894 1072.62 857.863 1078.2C855.867 1078.21 855.861 1078.29 853.981 1077.71C853.026 1074.49 853.541 1057.46 853.596 1053.1Z" fill="white"/>
<path d="M604.834 108.636C605.831 106.235 606.199 105.643 607.62 103.435L608.459 103.546C609.291 111.567 609.906 117.646 610.001 125.735C607.506 124.677 606.317 124.131 603.719 123.488C603.985 118.628 604.163 113.421 604.834 108.636Z" fill="#DEA025"/>
<path d="M758.076 343.139C753.643 344.345 747.556 345.9 743.393 344.014L743.025 342.866C745.187 339.674 751.132 339.128 755.014 338.314C756.123 339.843 756.661 340.368 758.064 341.544C758.064 342.076 758.07 342.607 758.076 343.139Z" fill="#DEA025"/>
<path d="M430.877 336.675C424.693 335.843 406.989 332.12 400.941 330.28C404.13 329.43 430.708 333.165 435.831 333.953C433.197 334.391 432.985 334.824 430.877 336.675Z" fill="#C08616"/>
<path d="M435.831 333.954C443.197 334.807 450.716 335.313 457.489 338.346C449.654 338.543 438.367 338.787 430.877 336.675C432.985 334.824 433.197 334.391 435.831 333.954Z" fill="#E0B868"/>
<path d="M780.719 1113.29C792.5 1113.38 804.281 1113.54 816.061 1113.76L819.588 1114.98L781.295 1115.23L780.719 1113.29Z" fill="#96856B" fill-opacity="0.988235"/>
<path d="M604.834 108.636C604.991 102.873 605.886 90.937 606.89 85.313C607.29 86.3619 608.49 102.051 608.459 103.546L607.62 103.435C606.199 105.643 605.831 106.235 604.834 108.636Z" fill="#C08616"/>
<path d="M420.372 186.035C418.087 183.972 405.42 169.521 403.613 166.976C406.11 168.247 414.189 175.591 416.665 177.745C417.701 180.893 420.099 184.51 420.372 186.035Z" fill="#2A2008" fill-opacity="0.976471"/>
<path d="M485.504 214.379C483.23 210.988 475.35 200.208 474.355 197.319C476.964 199.398 484.766 208.742 487.707 211.957L485.504 214.379Z" fill="#564720" fill-opacity="0.980392"/>
<path d="M762.515 336.519C763.428 339.159 763.501 340.146 765.999 341.493L758.076 343.139C758.07 342.607 758.064 342.076 758.064 341.544C756.662 340.368 756.123 339.843 755.015 338.314C757.47 337.594 760.011 337.076 762.515 336.519Z" fill="#E0B868"/>
<path d="M450.33 249.407C446.671 246.832 442.54 241.709 438.503 239.365C436.59 238.254 436.465 238.105 434.939 236.513L435.169 236.004C438.31 237.133 448.271 244.528 451.719 246.971L450.33 249.407Z" fill="#564720" fill-opacity="0.843137"/>
<path d="M471.022 140.082C468.561 135.308 465.426 129.268 463.63 124.291L464.046 124.325C467.242 128.968 470.388 133.645 473.484 138.356L471.022 140.082Z" fill="#2A2008" fill-opacity="0.976471"/>
<path d="M1109.02 1073.73C1109.77 1073.08 1110.79 1072.9 1111.71 1073.26C1112.62 1073.61 1113.26 1074.44 1113.37 1075.42C1113.49 1076.39 1113.05 1077.34 1112.24 1077.89C1111.09 1078.68 1109.52 1078.43 1108.67 1077.33C1107.82 1076.22 1107.97 1074.64 1109.02 1073.73Z" fill="#051E4D"/>
<path d="M442.604 1115.03C440.573 1115.09 437.261 1115.26 435.554 1114.46C439.102 1113.5 442.451 1113.8 446.154 1113.85L442.604 1115.03Z" fill="#7C7771" fill-opacity="0.807843"/>
<path d="M816.062 1113.76C819.533 1113.71 823.097 1113.41 826.403 1114.28L824.909 1114.58L826.379 1114.38C823.758 1114.75 822.209 1115.03 819.588 1114.98L816.062 1113.76Z" fill="#7C7771" fill-opacity="0.843137"/>
</svg>
